<mxfile host="app.diagrams.net" agent="Mozilla/5.0 (Windows NT 10.0; Win64; x64) AppleWebKit/537.36 (KHTML, like Gecko) Chrome/131.0.0.0 Safari/537.36" version="26.0.4">
  <diagram name="PÃ¡gina-1" id="gtWkdZzMCmvUAEo_9yig">
    <mxGraphModel dx="794" dy="452" grid="1" gridSize="10" guides="1" tooltips="1" connect="1" arrows="1" fold="1" page="1" pageScale="1" pageWidth="827" pageHeight="1169" math="0" shadow="0">
      <root>
        <mxCell id="0" />
        <mxCell id="1" parent="0" />
        <mxCell id="vsVx9TDVVyzhu7BizuPN-1" value="Entity" style="whiteSpace=wrap;html=1;align=center;" vertex="1" parent="1">
          <mxGeometry x="360" y="520" width="100" height="40" as="geometry" />
        </mxCell>
        <mxCell id="vsVx9TDVVyzhu7BizuPN-5" value="" style="endArrow=none;html=1;rounded=0;" edge="1" parent="1">
          <mxGeometry relative="1" as="geometry">
            <mxPoint x="330" y="600" as="sourcePoint" />
            <mxPoint x="480" y="600" as="targetPoint" />
          </mxGeometry>
        </mxCell>
        <mxCell id="vsVx9TDVVyzhu7BizuPN-6" value="N" style="resizable=0;html=1;whiteSpace=wrap;align=right;verticalAlign=bottom;" connectable="0" vertex="1" parent="vsVx9TDVVyzhu7BizuPN-5">
          <mxGeometry x="1" relative="1" as="geometry" />
        </mxCell>
        <mxCell id="vsVx9TDVVyzhu7BizuPN-10" value="1" style="text;html=1;align=center;verticalAlign=middle;resizable=0;points=[];autosize=1;strokeColor=none;fillColor=none;" vertex="1" parent="1">
          <mxGeometry x="320" y="578" width="30" height="30" as="geometry" />
        </mxCell>
        <mxCell id="vsVx9TDVVyzhu7BizuPN-11" value="" style="edgeStyle=entityRelationEdgeStyle;fontSize=12;html=1;endArrow=ERone;startArrow=ERoneToMany;rounded=0;endFill=0;" edge="1" parent="1">
          <mxGeometry width="100" height="100" relative="1" as="geometry">
            <mxPoint x="345" y="730" as="sourcePoint" />
            <mxPoint x="455" y="650" as="targetPoint" />
            <Array as="points">
              <mxPoint x="395" y="670" />
              <mxPoint x="415" y="720" />
              <mxPoint x="405" y="680" />
            </Array>
          </mxGeometry>
        </mxCell>
        <mxCell id="vsVx9TDVVyzhu7BizuPN-12" value="Cliente" style="whiteSpace=wrap;html=1;align=center;" vertex="1" parent="1">
          <mxGeometry x="190" y="888" width="100" height="42" as="geometry" />
        </mxCell>
        <mxCell id="vsVx9TDVVyzhu7BizuPN-13" value="Pedido" style="whiteSpace=wrap;html=1;align=center;" vertex="1" parent="1">
          <mxGeometry x="400" y="890" width="100" height="40" as="geometry" />
        </mxCell>
        <mxCell id="vsVx9TDVVyzhu7BizuPN-14" value="Metodo de pago" style="whiteSpace=wrap;html=1;align=center;" vertex="1" parent="1">
          <mxGeometry x="620" y="890" width="100" height="40" as="geometry" />
        </mxCell>
        <mxCell id="vsVx9TDVVyzhu7BizuPN-15" value="Relationship" style="shape=rhombus;perimeter=rhombusPerimeter;whiteSpace=wrap;html=1;align=center;" vertex="1" parent="1">
          <mxGeometry x="390" y="1000" width="120" height="60" as="geometry" />
        </mxCell>
        <mxCell id="vsVx9TDVVyzhu7BizuPN-16" value="" style="endArrow=none;html=1;rounded=0;entryX=0;entryY=0.5;entryDx=0;entryDy=0;" edge="1" parent="1" target="vsVx9TDVVyzhu7BizuPN-14">
          <mxGeometry relative="1" as="geometry">
            <mxPoint x="500" y="909.5" as="sourcePoint" />
            <mxPoint x="660" y="909.5" as="targetPoint" />
          </mxGeometry>
        </mxCell>
        <mxCell id="vsVx9TDVVyzhu7BizuPN-19" value="" style="endArrow=none;html=1;rounded=0;exitX=1;exitY=0.5;exitDx=0;exitDy=0;entryX=0;entryY=0.5;entryDx=0;entryDy=0;" edge="1" parent="1" source="vsVx9TDVVyzhu7BizuPN-12" target="vsVx9TDVVyzhu7BizuPN-13">
          <mxGeometry relative="1" as="geometry">
            <mxPoint x="330" y="990" as="sourcePoint" />
            <mxPoint x="490" y="990" as="targetPoint" />
          </mxGeometry>
        </mxCell>
        <mxCell id="vsVx9TDVVyzhu7BizuPN-44" value="tener&lt;div&gt;pertenecer&lt;/div&gt;" style="edgeLabel;html=1;align=center;verticalAlign=middle;resizable=0;points=[];" vertex="1" connectable="0" parent="vsVx9TDVVyzhu7BizuPN-19">
          <mxGeometry x="-0.0515" y="2" relative="1" as="geometry">
            <mxPoint as="offset" />
          </mxGeometry>
        </mxCell>
        <mxCell id="vsVx9TDVVyzhu7BizuPN-20" value="libro&amp;nbsp;" style="whiteSpace=wrap;html=1;align=center;" vertex="1" parent="1">
          <mxGeometry x="400" y="1120" width="100" height="40" as="geometry" />
        </mxCell>
        <mxCell id="vsVx9TDVVyzhu7BizuPN-21" value="N" style="text;html=1;align=center;verticalAlign=middle;resizable=0;points=[];autosize=1;strokeColor=none;fillColor=none;" vertex="1" parent="1">
          <mxGeometry x="380" y="888" width="30" height="30" as="geometry" />
        </mxCell>
        <mxCell id="vsVx9TDVVyzhu7BizuPN-22" value="1" style="text;html=1;align=center;verticalAlign=middle;resizable=0;points=[];autosize=1;strokeColor=none;fillColor=none;" vertex="1" parent="1">
          <mxGeometry x="600" y="888" width="30" height="30" as="geometry" />
        </mxCell>
        <mxCell id="vsVx9TDVVyzhu7BizuPN-23" value="1" style="text;html=1;align=center;verticalAlign=middle;resizable=0;points=[];autosize=1;strokeColor=none;fillColor=none;" vertex="1" parent="1">
          <mxGeometry x="430" y="930" width="30" height="30" as="geometry" />
        </mxCell>
        <mxCell id="vsVx9TDVVyzhu7BizuPN-24" value="" style="endArrow=none;html=1;rounded=0;exitX=0.5;exitY=1;exitDx=0;exitDy=0;entryX=0.5;entryY=0;entryDx=0;entryDy=0;" edge="1" parent="1" source="vsVx9TDVVyzhu7BizuPN-13" target="vsVx9TDVVyzhu7BizuPN-15">
          <mxGeometry relative="1" as="geometry">
            <mxPoint x="330" y="990" as="sourcePoint" />
            <mxPoint x="490" y="990" as="targetPoint" />
          </mxGeometry>
        </mxCell>
        <mxCell id="vsVx9TDVVyzhu7BizuPN-25" value="1" style="text;html=1;align=center;verticalAlign=middle;resizable=0;points=[];autosize=1;strokeColor=none;fillColor=none;" vertex="1" parent="1">
          <mxGeometry x="430" y="980" width="30" height="30" as="geometry" />
        </mxCell>
        <mxCell id="vsVx9TDVVyzhu7BizuPN-26" value="" style="endArrow=none;html=1;rounded=0;exitX=0.5;exitY=1;exitDx=0;exitDy=0;entryX=0.5;entryY=0;entryDx=0;entryDy=0;" edge="1" parent="1" source="vsVx9TDVVyzhu7BizuPN-15" target="vsVx9TDVVyzhu7BizuPN-20">
          <mxGeometry relative="1" as="geometry">
            <mxPoint x="330" y="990" as="sourcePoint" />
            <mxPoint x="490" y="990" as="targetPoint" />
          </mxGeometry>
        </mxCell>
        <mxCell id="vsVx9TDVVyzhu7BizuPN-27" value="1" style="text;html=1;align=center;verticalAlign=middle;resizable=0;points=[];autosize=1;strokeColor=none;fillColor=none;" vertex="1" parent="1">
          <mxGeometry x="430" y="1050" width="30" height="30" as="geometry" />
        </mxCell>
        <mxCell id="vsVx9TDVVyzhu7BizuPN-28" value="1" style="text;html=1;align=center;verticalAlign=middle;resizable=0;points=[];autosize=1;strokeColor=none;fillColor=none;" vertex="1" parent="1">
          <mxGeometry x="430" y="1100" width="30" height="30" as="geometry" />
        </mxCell>
        <mxCell id="vsVx9TDVVyzhu7BizuPN-29" value="id_pedido" style="ellipse;whiteSpace=wrap;html=1;align=center;fillColor=#76608a;fontColor=#ffffff;strokeColor=#432D57;" vertex="1" parent="1">
          <mxGeometry x="90" y="800" width="100" height="40" as="geometry" />
        </mxCell>
        <mxCell id="vsVx9TDVVyzhu7BizuPN-30" value="id_metododepago" style="ellipse;whiteSpace=wrap;html=1;align=center;fillColor=#60a917;fontColor=#ffffff;strokeColor=#2D7600;" vertex="1" parent="1">
          <mxGeometry x="470" y="810" width="100" height="40" as="geometry" />
        </mxCell>
        <mxCell id="vsVx9TDVVyzhu7BizuPN-40" value="" style="endArrow=none;html=1;rounded=0;exitX=0.5;exitY=1;exitDx=0;exitDy=0;entryX=0;entryY=0.5;entryDx=0;entryDy=0;fillColor=#76608a;strokeColor=#432D57;" edge="1" parent="1" source="vsVx9TDVVyzhu7BizuPN-29" target="vsVx9TDVVyzhu7BizuPN-12">
          <mxGeometry relative="1" as="geometry">
            <mxPoint x="330" y="890" as="sourcePoint" />
            <mxPoint x="490" y="890" as="targetPoint" />
          </mxGeometry>
        </mxCell>
        <mxCell id="vsVx9TDVVyzhu7BizuPN-41" value="id_pedido" style="ellipse;whiteSpace=wrap;html=1;align=center;fillColor=#60a917;fontColor=#ffffff;strokeColor=#2D7600;" vertex="1" parent="1">
          <mxGeometry x="345" y="800" width="100" height="40" as="geometry" />
        </mxCell>
        <mxCell id="vsVx9TDVVyzhu7BizuPN-42" value="" style="endArrow=none;html=1;rounded=0;exitX=0.5;exitY=1;exitDx=0;exitDy=0;entryX=0.25;entryY=0;entryDx=0;entryDy=0;fillColor=#60a917;strokeColor=#2D7600;" edge="1" parent="1" source="vsVx9TDVVyzhu7BizuPN-41" target="vsVx9TDVVyzhu7BizuPN-13">
          <mxGeometry relative="1" as="geometry">
            <mxPoint x="330" y="890" as="sourcePoint" />
            <mxPoint x="490" y="890" as="targetPoint" />
          </mxGeometry>
        </mxCell>
        <mxCell id="vsVx9TDVVyzhu7BizuPN-43" value="" style="endArrow=none;html=1;rounded=0;exitX=0.5;exitY=1;exitDx=0;exitDy=0;entryX=0.66;entryY=-0.083;entryDx=0;entryDy=0;entryPerimeter=0;fillColor=#60a917;strokeColor=#2D7600;" edge="1" parent="1" source="vsVx9TDVVyzhu7BizuPN-30" target="vsVx9TDVVyzhu7BizuPN-13">
          <mxGeometry relative="1" as="geometry">
            <mxPoint x="330" y="890" as="sourcePoint" />
            <mxPoint x="490" y="890" as="targetPoint" />
          </mxGeometry>
        </mxCell>
        <mxCell id="vsVx9TDVVyzhu7BizuPN-45" value="1" style="text;html=1;align=center;verticalAlign=middle;resizable=0;points=[];autosize=1;strokeColor=none;fillColor=none;" vertex="1" parent="1">
          <mxGeometry x="280" y="888" width="30" height="30" as="geometry" />
        </mxCell>
        <mxCell id="vsVx9TDVVyzhu7BizuPN-47" value="N" style="text;html=1;align=center;verticalAlign=middle;resizable=0;points=[];autosize=1;strokeColor=none;fillColor=none;" vertex="1" parent="1">
          <mxGeometry x="490" y="888" width="30" height="30" as="geometry" />
        </mxCell>
      </root>
    </mxGraphModel>
  </diagram>
</mxfile>
